<?xml version="1.0" standalone="no"?>
<!DOCTYPE svg PUBLIC "-//W3C//DTD SVG 20010904//EN"
 "http://www.w3.org/TR/2001/REC-SVG-20010904/DTD/svg10.dtd">
<svg version="1.0" xmlns="http://www.w3.org/2000/svg"
 width="96.000000pt" height="96.000000pt" viewBox="0 0 96.000000 96.000000"
 preserveAspectRatio="xMidYMid meet">
<metadata>
Created by potrace 1.16, written by Peter Selinger 2001-2019
</metadata>
<g transform="translate(0.000000,96.000000) scale(0.100000,-0.100000)"
fill="#000000" stroke="none">
<path d="M0 480 l0 -480 480 0 480 0 0 480 0 480 -480 0 -480 0 0 -480z m598
343 c9 -13 12 -14 13 -2 0 8 4 6 9 -6 5 -11 9 -14 9 -7 1 13 123 -43 129 -59
2 -5 11 -9 20 -9 11 0 17 -8 17 -24 0 -13 -4 -22 -9 -19 -5 4 -25 7 -45 9 -57
5 -121 27 -121 42 0 21 -49 64 -66 58 -9 -3 -12 -1 -9 4 3 6 3 11 -2 11 -69
11 -107 -9 -134 -70 -10 -24 -19 -49 -19 -56 0 -7 -16 -27 -36 -44 -20 -18
-32 -36 -28 -43 5 -7 3 -8 -5 -4 -7 5 -21 0 -32 -10 -21 -19 -53 -29 -43 -13
8 14 -58 10 -88 -5 -47 -24 -63 -15 -66 38 -2 29 2 51 11 60 20 21 94 56 101
49 3 -4 6 -1 6 5 0 7 14 12 31 12 16 0 28 4 25 9 -3 5 3 11 14 14 10 3 22 0
25 -7 3 -6 3 -1 1 10 -3 17 1 22 22 22 14 0 31 7 38 16 7 11 15 13 18 7 8 -12
36 -3 36 11 0 5 7 16 16 25 14 14 16 14 29 -3 13 -18 14 -18 15 -1 0 9 7 17
15 17 8 0 15 4 15 9 0 12 72 -26 88 -46z m-60 -69 c31 -21 29 -67 -3 -88 -23
-15 -27 -15 -50 0 -31 20 -33 60 -3 85 26 23 28 23 56 3z m372 -234 c0 -131
-3 -170 -12 -168 -7 1 -23 -3 -35 -10 -26 -14 -31 -1 -8 18 21 18 19 79 -6
125 -24 45 -34 141 -19 180 8 20 16 25 45 25 l35 0 0 -170z m-224 23 c17 -23
12 -43 -11 -43 -15 0 -115 108 -115 125 0 6 6 17 12 23 10 10 22 3 56 -35 23
-26 50 -58 58 -70z m-200 55 c-4 -18 -9 -54 -12 -80 l-7 -48 35 0 c20 0 56 -3
82 -6 37 -6 46 -10 46 -27 0 -19 -4 -20 -85 -13 l-84 6 -3 -57 c-3 -50 -6 -58
-23 -58 -18 0 -20 6 -17 57 l3 57 -38 6 c-58 10 -65 14 -61 32 3 15 14 18 56
18 l52 -1 0 42 c0 77 10 104 37 104 23 0 25 -3 19 -32z m-399 -105 c1 -36 1
-37 -6 -8 -6 26 -5 45 3 45 1 0 2 -17 3 -37z m35 -18 c3 -14 1 -25 -3 -25 -5
0 -9 11 -9 25 0 14 2 25 4 25 2 0 6 -11 8 -25z m678 -44 c0 -39 -25 -59 -52
-42 -16 10 -19 10 -12 -1 4 -7 -2 -5 -13 5 -19 16 -38 78 -24 74 17 -4 50 16
44 26 -3 6 8 1 25 -12 23 -16 32 -30 32 -50z m-711 -13 c-1 -31 -1 -31 -8 -8
-5 14 -6 28 -4 33 9 15 13 6 12 -25z m41 12 c0 -5 -4 -10 -10 -10 -5 0 -10 5
-10 10 0 6 5 10 10 10 6 0 10 -4 10 -10z m65 -40 c-3 -5 -11 -10 -16 -10 -6 0
-7 5 -4 10 3 6 11 10 16 10 6 0 7 -4 4 -10z m446 -17 c9 -10 10 -18 4 -20 -6
-2 -35 -21 -65 -44 -47 -35 -55 -38 -68 -25 -19 19 -11 29 51 71 60 40 60 40
78 18z m-552 -25 c0 -31 -1 -31 -10 -10 -5 13 -7 28 -3 33 10 16 14 9 13 -23z
m695 -43 c2 -6 -7 -12 -20 -13 -14 -1 -34 -11 -46 -22 -11 -10 -25 -17 -30
-14 -4 3 -8 0 -8 -5 0 -6 -7 -11 -15 -11 -8 0 -15 -4 -15 -10 0 -5 -9 -10 -19
-10 -11 0 -26 -6 -33 -12 -21 -19 -59 -40 -64 -35 -3 3 -2 15 1 28 4 16 32 40
83 71 63 38 85 47 119 45 24 -1 44 -6 47 -12z m-319 -35 c3 -6 -1 -7 -9 -4
-18 7 -21 14 -7 14 6 0 13 -4 16 -10z m-158 -52 c-3 -8 -6 -5 -6 6 -1 11 2 17
5 13 3 -3 4 -12 1 -19z m120 -64 c-3 -3 -12 -4 -19 -1 -8 3 -5 6 6 6 11 1 17
-2 13 -5z m0 -40 c-3 -3 -12 -4 -19 -1 -8 3 -5 6 6 6 11 1 17 -2 13 -5z"/>
</g>
</svg>
